<?xml version="1.0" encoding="utf-8"?>
<!-- Generator: Adobe Illustrator 20.1.0, SVG Export Plug-In . SVG Version: 6.00 Build 0)  -->
<svg version="1.1" id="Layer_1" xmlns="http://www.w3.org/2000/svg" xmlns:xlink="http://www.w3.org/1999/xlink" x="0px" y="0px"
	 viewBox="0 0 6144 2016" style="enable-background:new 0 0 6144 2016;" xml:space="preserve">
<style type="text/css">
	.st0{fill:#AAC148;}
	.st1{fill:#F9F9FA;}
	.st2{fill:#F9F9F9;}
	.st3{opacity:0.34;fill:#F9F9F9;}
</style>
<g>
	<path class="st0" d="M6140.9,1736.4c0,149.8-121.5,271.3-271.3,271.3H274.4c-149.8,0-271.3-121.5-271.3-271.3V271.3
		C3.1,121.5,124.6,0,274.4,0h5595.2c149.8,0,271.3,121.5,271.3,271.3L6140.9,1736.4L6140.9,1736.4z"/>
	<g>
		<g>
			<path class="st1" d="M2030.6,746.6h-41.3c0-5.7-3.9-21.7-11.7-48.2H1918c-8.1,26-12.1,42.1-12.1,48.2h-38.8
				c0-3.3,10-30.9,30.1-82.5s30.1-80.1,30.1-85.3h48.7c0,4.9,9.1,32.9,27.3,84.1C2021.5,714.1,2030.6,742,2030.6,746.6z M1971,673.8
				c-14.7-44.3-22-68.3-22-71.9h-2.1c0,3.3-7.6,27.3-22.8,71.9H1971z"/>
			<path class="st1" d="M2196.8,746.6H2165c0-3.5-11.8-22.1-35.4-55.8c-24.7-35.5-38.8-59.8-42.3-72.8h-2.1
				c2.1,18.8,3.2,35.8,3.2,51c0,21.2,0.6,47.1,1.8,77.6h-31.7c1.3-26.6,1.9-55.9,1.9-87.8c0-31.4-0.6-58.1-1.9-80.1h38.3
				c0,4.6,10.6,22.7,31.8,54.5c22.6,33.8,35.6,56.7,38.9,68.7h1.9c-2.1-19.2-3.1-36.3-3.1-51.6c0-23.3-0.6-47.2-1.8-71.7h32.2
				c-1.2,21.3-1.8,48-1.8,80.1C2195,691.1,2195.6,720.4,2196.8,746.6z"/>
			<path class="st1" d="M2383.6,656.9c0,24.4-7.8,45.7-23.5,63.9c-15.6,18.2-37.6,27.3-65.7,27.3c-12.7,0-30.3-0.5-52.6-1.5
				c1.1-26,1.7-55.2,1.7-87.8c0-31.3-0.6-58-1.7-80.1h22.6c3.7,0,9.2-0.1,16.5-0.4c7.3-0.3,12.1-0.4,14.3-0.4
				c31,0,53.5,7.7,67.5,23.2C2376.6,616.7,2383.6,635.2,2383.6,656.9z M2348.4,662.4c0-16.5-4.8-30.4-14.4-41.7
				c-9.6-11.3-24.3-16.9-44.1-16.9c-3.7,0-8.8,0.4-15.2,1.2c0.9,17.2,1.3,35.1,1.3,53.9c0,20.5,0.4,40.9,1.3,61.1
				c5.6,1.1,11.2,1.7,16.8,1.7c18.5,0,32.2-5.7,41.1-17.2C2344,692.9,2348.4,678.9,2348.4,662.4z"/>
			<path class="st1" d="M2555.9,746.6h-38.2c-10-30.4-17.6-49.2-22.9-56.3c-5.3-7.1-13.9-10.7-25.8-10.7c-5,0-9.8,0-14.3,0.1
				c0,22.1,0.4,44.4,1.2,66.9h-35.8c1.1-26,1.7-55.2,1.7-87.8c0-31.3-0.6-58-1.7-80.1h22.3c2.6,0,8-0.1,16.2-0.4s15.8-0.4,22.8-0.4
				c39.4,0,59.2,13.5,59.2,40.5c0,21.4-11.3,36.3-33.8,44.7v1.9c8.7,2.4,16.3,9.2,22.8,20.3C2536,696.6,2544.8,716.9,2555.9,746.6z
				 M2507.6,628c0-17.1-11-25.7-33-25.7c-8.1,0-15.2,0.6-21.4,1.8c0.9,13.3,1.4,30.7,1.4,52.1c4.7,0.2,8.7,0.3,12,0.3
				C2493.9,656.5,2507.6,647,2507.6,628z"/>
			<path class="st1" d="M2740.7,659.6c0,26.4-8.1,48.3-24.2,65.6c-16.2,17.4-36.1,26-59.9,26c-22.7,0-41.7-8-57-23.9
				c-15.3-15.9-22.9-36.2-22.9-60.8c0-26.4,8.1-48.3,24.2-65.6c16.2-17.4,36.1-26,59.9-26c22.7,0,41.7,7.9,57,23.8
				C2733,614.6,2740.7,634.9,2740.7,659.6z M2705.1,663.3c0-18-4.6-32.5-13.8-43.7c-9.2-11.2-20.5-16.8-34-16.8
				c-12.6,0-23.2,5.6-32,16.9c-8.8,11.3-13.2,25.5-13.2,42.7c0,17.9,4.6,32.4,13.9,43.6c9.2,11.2,20.6,16.8,34,16.8
				c12.5,0,23.2-5.7,32-17C2700.7,694.6,2705.1,680.4,2705.1,663.3z"/>
			<path class="st1" d="M2813.6,746.6h-36.5c1.1-26.6,1.7-55.9,1.7-87.8c0-31.4-0.6-58.1-1.7-80.1h36.5c-1.1,21.7-1.7,48.3-1.7,80.1
				C2811.9,691.2,2812.5,720.5,2813.6,746.6z"/>
			<path class="st1" d="M3000.4,656.9c0,24.4-7.8,45.7-23.5,63.9c-15.6,18.2-37.6,27.3-65.7,27.3c-12.7,0-30.3-0.5-52.6-1.5
				c1.1-26,1.7-55.2,1.7-87.8c0-31.3-0.6-58-1.7-80.1h22.6c3.7,0,9.2-0.1,16.5-0.4c7.3-0.3,12.1-0.4,14.3-0.4
				c31,0,53.5,7.7,67.5,23.2C2993.4,616.7,3000.4,635.2,3000.4,656.9z M2965.2,662.4c0-16.5-4.8-30.4-14.4-41.7
				c-9.6-11.3-24.3-16.9-44.1-16.9c-3.7,0-8.8,0.4-15.2,1.2c0.9,17.2,1.3,35.1,1.3,53.9c0,20.5,0.4,40.9,1.3,61.1
				c5.6,1.1,11.2,1.7,16.8,1.7c18.5,0,32.2-5.7,41.1-17.2C2960.7,692.9,2965.2,678.9,2965.2,662.4z"/>
		</g>
		<g>
			<path class="st2" d="M2124,1024.9c34,21.3,60,48.5,78.2,81.7c18.2,33.2,27.2,67.5,27.2,102.7c0,39.2-9,75.7-27,109.3
				c-18,33.6-44,60.4-77.9,80.4c-34,20-73.7,30-119.1,30h-143.9c-2.9,0-5.5-1.1-7.6-3.3c-2.2-2.2-3.3-4.7-3.3-7.6v-414.7
				c0-2.9,1-5.4,3-7.4c2-2,4.4-3,7.4-3h144.4C2050.5,993,2090,1003.7,2124,1024.9z M2081.2,1333.6c21.8-13.4,38.5-31.1,50.1-53.1
				c11.6-22,17.4-45.5,17.4-70.6c0-25.1-5.6-48.4-16.9-70c-11.3-21.6-27.7-39-49.3-52c-21.6-13.1-47.3-19.6-77.1-19.6h-77.4
				l0.5,285.6h76.8C2034.2,1353.8,2059.4,1347.1,2081.2,1333.6z"/>
			<path class="st2" d="M2420.7,1432.8c-25.1,0-48.3-6.1-69.8-18.3c-21.4-12.2-38.4-28.8-51-49.9c-12.5-21.1-18.8-44.5-18.8-70.3
				c0-25.8,6.3-49.3,18.8-70.6c12.5-21.3,29.5-38,51-50.1c21.4-12.2,44.7-18.3,69.8-18.3c25.1,0,48.3,6.1,69.8,18.3
				c21.4,12.2,38.4,28.9,51,50.1c12.5,21.3,18.8,44.8,18.8,70.6c0,25.8-6.3,49.2-18.8,70.3c-12.5,21.1-29.5,37.7-51,49.9
				C2469.1,1426.8,2445.8,1432.8,2420.7,1432.8z M2420.7,1363.1c12.7,0,24.2-3.1,34.3-9.3c10.2-6.2,18.2-14.5,24-25.1
				c5.8-10.5,8.7-21.8,8.7-33.8c0-19.3-6.4-35.6-19.1-49c-12.7-13.4-28.7-20.2-48-20.2c-19.3,0-35.2,6.7-48,20.2
				c-12.7,13.4-19.1,29.8-19.1,49c0,12,2.9,23.3,8.7,33.8c5.8,10.5,13.8,18.9,24,25.1C2396.6,1360,2408,1363.1,2420.7,1363.1z"/>
			<path class="st2" d="M3006.6,1166.9l-1.1,4.9l-105.2,250.1c-0.7,1.8-2,3.5-3.8,4.9c-1.8,1.5-3.8,2.2-6,2.2h-7.6
				c-5.1,0-8.9-2.4-11.4-7.1l-75.2-141.7l-75.8,141.7c-2.5,4.7-6.4,7.1-11.4,7.1h-7.6c-4.7,0-8.2-2.4-10.4-7.1l-104.6-250.1
				l-1.1-4.9c0-5.1,3.1-7.6,9.3-7.6h56.7c2.5,0,5,0.7,7.4,2.2c2.4,1.5,4.1,3.3,5.2,5.4l52.3,137.3l62.7-135.2
				c2.5-4.7,6.7-7.1,12.5-7.1h9.3c6.2,0,10.2,2.4,12,7.1l63.2,135.2l52.3-137.3c2.5-5.1,6.5-7.6,12-7.6h57.2
				C3003.5,1159.3,3006.6,1161.8,3006.6,1166.9z"/>
			<path class="st2" d="M3321,1418.7c-0.7,6.9-3.1,10.4-7.1,10.4h-45.8c-8.4,0-15-2.5-19.9-7.6c-4.9-5.1-7.4-11.6-7.4-19.6v-134.6
				c0-14.5-4.7-25.6-14.2-33.2c-9.5-7.6-21.1-11.4-34.9-11.4c-21.8,0-42.9,9.3-63.2,27.8v168.4c0,2.5-1,4.9-3,7.1
				c-2,2.2-4.5,3.3-7.4,3.3h-55c-2.5,0-4.8-1-6.8-3c-2-2-3-4.4-3-7.4v-249.1c0-2.9,1-5.4,3-7.4c2-2,4.3-3,6.8-3h37.6
				c6.2,0,11.6,2.2,16.3,6.5c4.7,4.4,8,9.6,9.8,15.8c25.1-17.4,50.3-26.2,75.8-26.2c19.3,0,37.6,4.2,55,12.5
				c17.4,8.4,31.5,20.4,42.2,36.2c10.7,15.8,16.1,34.4,16.1,55.9V1380c0.4,12.7,1.8,24.5,4.4,35.4L3321,1418.7z"/>
			<path class="st2" d="M3454,993c2.9,0,5.4,1,7.4,3c2,2,3,4.5,3,7.4v414.7c0,3.3-1,5.9-3,7.9c-2,2-4.5,3-7.4,3h-38.1
				c-8.4,0-14.9-2.6-19.6-7.9c-4.7-5.3-7.1-11.9-7.1-19.9v-397.8c0-2.9,1-5.4,3-7.4c2-2,4.4-3,7.4-3H3454z"/>
			<path class="st2" d="M3663.8,1432.8c-25.1,0-48.3-6.1-69.8-18.3c-21.4-12.2-38.4-28.8-51-49.9c-12.5-21.1-18.8-44.5-18.8-70.3
				c0-25.8,6.3-49.3,18.8-70.6s29.5-38,51-50.1c21.4-12.2,44.7-18.3,69.8-18.3c25.1,0,48.3,6.1,69.8,18.3
				c21.4,12.2,38.4,28.9,51,50.1s18.8,44.8,18.8,70.6c0,25.8-6.3,49.2-18.8,70.3c-12.5,21.1-29.5,37.7-51,49.9
				C3712.1,1426.8,3688.9,1432.8,3663.8,1432.8z M3663.8,1363.1c12.7,0,24.2-3.1,34.3-9.3c10.2-6.2,18.2-14.5,24-25.1
				c5.8-10.5,8.7-21.8,8.7-33.8c0-19.3-6.4-35.6-19.1-49c-12.7-13.4-28.7-20.2-48-20.2c-19.3,0-35.2,6.7-48,20.2
				c-12.7,13.4-19.1,29.8-19.1,49c0,12,2.9,23.3,8.7,33.8c5.8,10.5,13.8,18.9,24,25.1C3639.7,1360,3651.1,1363.1,3663.8,1363.1z"/>
			<path class="st2" d="M4097.1,1415.4c0.7,3.6,0.5,6.8-0.8,9.5c-1.3,2.7-3.4,4.1-6.3,4.1h-40.9c-6.5,0-11.6-2.4-15.3-7.1
				c-3.6-4.7-6.5-11.4-8.7-20.2c-9.8,9.8-21,17.3-33.5,22.3s-29.3,7.6-50.4,7.6c-28.3,0-50.7-6.7-67-20.2
				c-16.3-13.4-24.5-32.3-24.5-56.7c0-23.2,7.4-41.9,22.3-55.9c14.9-14,33.8-24.5,56.7-31.6c22.9-7.1,52.7-13.7,89.4-19.9
				c0.4-9.8-2.3-16.5-7.9-20.2c-5.6-3.6-14.3-5.4-25.9-5.4c-22.9,0-51.6,7.5-86.1,22.3c-2.5,1.1-4.7,1.6-6.5,1.6
				c-4.4,0-7.3-2.2-8.7-6.5l-17.4-41.4c-1.5-2.5-1.4-5.2,0.3-7.9c1.6-2.7,3.9-5,6.8-6.8c14.2-7.6,32-14.1,53.4-19.3
				c21.4-5.3,42.7-7.9,63.8-7.9c32,0,56.8,8.9,74.4,26.7c17.6,17.8,26.4,42.2,26.4,73l-0.5,27.8c-0.4,5.8-0.5,14.5-0.5,26.2
				C4089.5,1346,4092,1381.2,4097.1,1415.4z M3954.8,1372.9c10.2,0,21.1-2,32.7-6c11.6-4,21.4-9.3,29.4-15.8l-0.5-19.6l0.5-21.3
				c-28,5.8-50.1,11.8-66.2,18c-16.2,6.2-24.3,14.7-24.3,25.6C3926.5,1366.5,3936,1372.9,3954.8,1372.9z"/>
			<path class="st2" d="M4408.5,1000.1c4.9,4.7,7.4,10.7,7.4,18v400.6c0,2.5-1,4.9-3,7.1c-2,2.2-4.5,3.3-7.4,3.3h-28.3
				c-5.5,0-11.4-1.6-18-4.9c-6.5-3.3-11.4-7.4-14.7-12.5c-20.7,14.2-43.6,21.3-68.7,21.3s-47.4-6.3-67-18.8
				c-19.6-12.5-34.9-29.6-45.8-51.2c-10.9-21.6-16.3-45.7-16.3-72.2c0-26.2,6-49.4,18-69.8c12-20.3,27.6-36.1,46.9-47.1
				c19.3-11.1,39.6-16.6,61-16.6c24.7,0,47.4,6.2,68.1,18.5v-129.7c0-10.2-0.9-18.7-2.7-25.6c-1.8-6.9-2.9-11.4-3.3-13.6
				c-0.4-1.1-0.5-2.4-0.5-3.8c0-2.9,0.6-5.3,1.9-7.1c1.3-1.8,3-2.7,5.2-2.7h48C4397.2,993,4403.6,995.4,4408.5,1000.1z M4240.1,1344
				c12.9,13.1,28.8,19.6,47.7,19.6c17.8,0,35.4-4.4,52.9-13.1v-106.3c-19.6-11.6-38.7-17.4-57.2-17.4c-16,0-30.4,5.3-43.3,15.8
				c-12.9,10.5-19.3,26.5-19.3,48C4220.8,1313.1,4227.2,1330.9,4240.1,1344z"/>
			<path class="st2" d="M5060.1,1422.5c0,4.4-2.7,6.5-8.2,6.5h-63.8c-4.7,0-8.4-2.4-10.9-7.1l-29.4-62.1H4738l-29.4,62.1
				c-2.2,4.7-5.8,7.1-10.9,7.1h-64.3c-2.5,0-4.5-0.7-6-2.2c-1.5-1.4-2.2-3.3-2.2-5.4l1.1-4.4l205.5-421.3c2.2-3.6,4.7-5.5,7.6-5.5
				h6.5c2.9,0,5.4,1.8,7.6,5.5l204.9,421.3C5059.5,1419.2,5060.1,1421,5060.1,1422.5z M4914.6,1289l-71.4-152l-71.9,152H4914.6z"/>
			<path class="st2" d="M5376.7,1015.6c22.9,15.1,40.7,34.2,53.4,57.2c12.7,23.1,19.1,46.1,19.1,68.9c0,24.3-6.4,48.1-19.1,71.4
				c-12.7,23.3-30.4,42.2-53.1,56.7c-22.7,14.5-48.6,21.8-77.7,21.8h-96.5v126.4c0,3.3-1,5.9-3,7.9c-2,2-4.5,3-7.4,3h-57.8
				c-2.9,0-5.3-1-7.1-3c-1.8-2-2.7-4.6-2.7-7.9v-414.7c0-2.9,1-5.4,3-7.4c2-2,4.4-3,7.4-3h164C5328,993,5353.8,1000.6,5376.7,1015.6
				z M5333.9,1205.8c12.2-7.1,21.4-16.3,27.8-27.8c6.4-11.4,9.5-23.5,9.5-36.2c0-12.3-3.2-24.2-9.5-35.4
				c-6.4-11.3-15.6-20.4-27.8-27.5c-12.2-7.1-26.4-10.6-42.8-10.6h-88.3v148.2h88.3C5307.5,1216.5,5321.7,1212.9,5333.9,1205.8z"/>
			<path class="st2" d="M5856.3,1415.4c0,4-1.4,7.3-4.1,9.8c-2.7,2.5-6.5,3.8-11.2,3.8h-58.9c-5.1,0-9.3-1.8-12.5-5.4l-191.3-213.1
				v208.2c0,2.5-1,4.9-3,7.1c-2,2.2-4.5,3.3-7.4,3.3h-56.7c-2.9,0-5.5-1-7.6-3c-2.2-2-3.3-4.4-3.3-7.4v-378.2
				c-0.4-11.3-1.8-22.5-4.4-33.8c-0.4-0.7-0.5-2-0.5-3.8c0-2.9,0.6-5.3,1.9-7.1c1.3-1.8,3.2-2.7,5.7-2.7h48.5c8,0,14.4,2.4,19.3,7.1
				c4.9,4.7,7.4,10.7,7.4,18v172.2L5741.8,999c2.9-4,7.3-6,13.1-6h58.9c4.4,0,7.9,1.4,10.6,4.1c2.7,2.7,4.1,5.9,4.1,9.5
				c0,3.3-1.3,6.5-3.8,9.8l-157.5,184.2l184.2,202.7C5854.6,1407,5856.3,1411,5856.3,1415.4z"/>
		</g>
	</g>
	<g>
		<g>
			<path class="st2" d="M1210.9,841H724.5c-10.8,0-19.6,8.8-19.6,19.6v407.9c0,10.8,8.8,19.6,19.6,19.6h86.7v137.5
				c0,31.9,25.9,57.7,57.7,57.7l0,0c31.9,0,57.7-25.9,57.7-57.7v-137.5h80.8v137.5c0,31.9,25.9,57.7,57.7,57.7l0,0
				c31.9,0,57.7-25.9,57.7-57.7v-137.5h87.9c10.8,0,19.6-8.8,19.6-19.6V860.6C1230.5,849.8,1221.7,841,1210.9,841z"/>
			<path class="st2" d="M622.6,840.9L622.6,840.9c-31.9,0-57.7,25.9-57.7,57.7v234.6c0,31.9,25.9,57.7,57.7,57.7l0,0
				c31.9,0,57.7-25.9,57.7-57.7V898.7C680.3,866.8,654.4,840.9,622.6,840.9z"/>
			<path class="st2" d="M1312.8,840.9L1312.8,840.9c-31.9,0-57.7,25.9-57.7,57.7v234.6c0,31.9,25.9,57.7,57.7,57.7l0,0
				c31.9,0,57.7-25.9,57.7-57.7V898.7C1370.6,866.8,1344.7,840.9,1312.8,840.9z"/>
			<path class="st2" d="M728.4,812.4h477.4c12.5,0,21.7-11.5,19.2-23.7c-15.8-75.3-63.7-138.7-128.7-175.3l40.8-73.6
				c2.8-5,1-11.3-4-14c-5-2.8-11.3-1-14,4l-41.1,74.2c-33.7-15.6-71.2-24.4-110.8-24.4c-39.6,0-77.1,8.7-110.8,24.4l-41.1-74.2
				c-2.8-5-9-6.8-14-4c-5,2.8-6.8,9-4,14l40.8,73.6c-65,36.6-112.9,100.1-128.7,175.3C706.7,800.9,716,812.4,728.4,812.4z
				 M1109.6,702.7c0,12.3-9.9,22.2-22.2,22.2c-12.3,0-22.2-9.9-22.2-22.2c0-12.3,9.9-22.2,22.2-22.2
				C1099.6,680.5,1109.6,690.4,1109.6,702.7z M846.9,680.5c12.3,0,22.2,9.9,22.2,22.2c0,12.3-9.9,22.2-22.2,22.2
				c-12.3,0-22.2-9.9-22.2-22.2C824.7,690.4,834.6,680.5,846.9,680.5z"/>
		</g>
		<g>
			<path class="st3" d="M1263.5,327.7H482.1c-39.4,0-71.4,32-71.4,71.4v1209.7c0,39.4,32,71.4,71.4,71.4h971.2
				c39.4,0,71.4-32,71.4-71.4V588.8c0-18.9-7.5-37.1-20.9-50.5L1314,348.6C1300.6,335.2,1282.5,327.7,1263.5,327.7z"/>
			<path class="st3" d="M1358.2,550.1h156.7l-203.6-203.6v156.7C1311.3,529,1332.3,550.1,1358.2,550.1z"/>
		</g>
	</g>
</g>
</svg>
