<?xml version="1.0" encoding="utf-8"?>
<!-- Generator: Adobe Illustrator 20.1.0, SVG Export Plug-In . SVG Version: 6.00 Build 0)  -->
<svg version="1.1" id="Layer_1" xmlns="http://www.w3.org/2000/svg" xmlns:xlink="http://www.w3.org/1999/xlink" x="0px" y="0px"
	 viewBox="0 0 291.2 315.1" style="enable-background:new 0 0 291.2 315.1;" xml:space="preserve">
<style type="text/css">
	.st0{fill:#FFFFFF;}
</style>
<g>
	<g>
		<path class="st0" d="M9.9,0l25.6,0l-3.4,223L90.3,0.1l25.6,0l-76,269.1l-28.8,0L9.9,0z"/>
		<path class="st0" d="M79.5,228.5l15.4-110.4c2-14.4,6.9-25.5,14.7-33.2c7.8-7.7,19.7-11.6,35.7-11.6c16,0,26.8,3.9,32.2,11.6
			c5.5,7.7,7.2,18.8,5.2,33.3l-15.4,110.4c-2,14.5-6.8,25.6-14.3,33.1c-7.5,7.6-19.4,11.3-35.5,11.3c-16.4,0-27.3-3.8-32.8-11.4
			C79.2,254.1,77.5,243,79.5,228.5z M103.2,228.5c-1.2,8.3-0.4,14.4,2.1,18.5c2.6,4.1,7.6,6.1,15,6.1c7.2,0,12.6-2,16.2-6.1
			c3.6-4.1,6-10.2,7.2-18.5l15.4-110.4c1.2-8.4,0.5-14.6-1.9-18.8c-2.4-4.1-7.3-6.2-14.6-6.2c-7.4,0-13,2-16.7,6.2
			c-3.7,4.1-6.2,10.4-7.3,18.8L103.2,228.5z"/>
		<path class="st0" d="M164.8,269.4l51.5-96.8l-22.7-95.4l24.8,0l13.3,71.2l33.2-71.1l24.8,0l-50,95.3l25.1,96.9l-24.8,0l-15.1-72.3
			l-35.3,72.2L164.8,269.4z"/>
	</g>
	<g>
		<path class="st0" d="M25.4,301c0,1-0.1,2-0.3,3s-0.5,2-1,3c-0.5,1-1.1,2-1.9,2.9c-0.8,0.9-1.7,1.7-2.8,2.5c-1,0.6-2.1,1.1-3.3,1.4
			c-1.2,0.3-2.2,0.5-3.3,0.6c-1,0.1-2.2,0.1-3.6,0.1H0l0.5-1.6c0.8,0,1.4-0.2,1.7-0.7c0.3-0.4,0.6-1.1,0.9-1.9L7.5,296
			c0.2-0.7,0.3-1.2,0.3-1.5c0-0.7-0.2-1.1-0.6-1.3c-0.4-0.2-0.9-0.3-1.6-0.3l0.5-1.6h8.2c1.4,0,2.5,0.1,3.5,0.2c1,0.1,2,0.5,3,1.1
			c1.9,1.1,3.1,2.3,3.7,3.9C25.1,298.1,25.4,299.6,25.4,301z M20.4,299.5c0-1.4-0.2-2.5-0.6-3.4c-0.4-0.9-0.9-1.5-1.5-1.9
			c-0.6-0.4-1.3-0.7-2-0.9c-0.7-0.1-1.5-0.2-2.4-0.2h-0.8L8,309.8c-0.2,0.8-0.3,1.3-0.3,1.5c0,1.1,1,1.7,2.9,1.7
			c2.1,0,3.8-0.6,5.1-1.7s2.4-2.6,3.2-4.5c0.6-1.4,1-2.8,1.2-4.1C20.3,301.2,20.4,300.2,20.4,299.5z"/>
		<path class="st0" d="M42.8,306.1c0,1.1-0.2,2.3-0.7,3.3c-0.5,1.1-1.1,2.1-2,2.9s-1.9,1.5-3,2c-1.1,0.5-2.4,0.7-3.8,0.7
			c-1.3,0-2.5-0.3-3.5-0.8c-1-0.5-1.8-1.2-2.4-2.2c-0.6-0.9-0.8-2-0.8-3.2c0-1.5,0.4-3,1.3-4.3c0.8-1.4,2-2.5,3.4-3.3
			c1.5-0.8,3-1.2,4.7-1.2c1.4,0,2.6,0.3,3.6,0.8c1,0.6,1.8,1.3,2.3,2.2S42.8,305,42.8,306.1z M38.7,304.9c0-1.1-0.2-1.9-0.7-2.5
			c-0.5-0.6-1.1-0.9-2-0.9c-0.9,0-1.6,0.3-2.3,1c-0.7,0.6-1.2,1.4-1.7,2.4s-0.8,1.9-1,2.9c-0.2,1-0.3,1.8-0.3,2.5
			c0,1,0.2,1.8,0.7,2.4s1.1,0.9,1.9,0.9c0.9,0,1.7-0.3,2.4-0.9c0.7-0.6,1.3-1.4,1.7-2.4c0.4-1,0.8-1.9,1-2.9
			C38.6,306.4,38.7,305.5,38.7,304.9z"/>
		<path class="st0" d="M64.3,310.1c-0.3,0.6-0.8,1.3-1.3,2c-0.6,0.7-1.3,1.4-2.1,1.9c-0.8,0.6-1.7,0.8-2.7,0.8c-0.8,0-1.5-0.2-2-0.6
			c-0.5-0.4-0.7-1-0.7-1.6c0-0.5,0.1-1.2,0.4-2.1l1.2-4.1c0.4-1.1,0.5-1.9,0.5-2.3c0-0.3-0.1-0.5-0.2-0.7c-0.2-0.2-0.4-0.3-0.6-0.3
			c-0.6,0-1.4,0.5-2.3,1.6c-0.9,1-1.8,2.4-2.7,4.2c-0.9,1.8-1.7,3.7-2.4,5.8h-4.1l3.1-10c0.3-1,0.4-1.6,0.4-1.7c0-0.1,0-0.3-0.1-0.4
			c-0.1-0.1-0.2-0.2-0.4-0.2c-0.4,0-0.9,0.3-1.3,0.8c-0.4,0.6-0.7,1.2-1,1.8h-1.4c0.4-1.2,1.1-2.3,2-3.3c0.9-1,2-1.5,3.4-1.5
			c0.9,0,1.6,0.2,2,0.7c0.4,0.5,0.7,1,0.7,1.5c0,0.3-0.1,0.7-0.2,1.4c-0.1,0.6-0.3,1.2-0.4,1.7l-0.6,1.8c1.4-2.2,2.7-3.9,4-5.2
			c1.2-1.3,2.6-1.9,4.1-1.9c0.9,0,1.5,0.3,1.9,0.8c0.4,0.5,0.6,1.1,0.6,1.6c0,0.4-0.1,1.1-0.4,2.1l-1.8,5.9
			c-0.2,0.7-0.3,1.3-0.3,1.6c0,0.1,0,0.2,0.1,0.3s0.2,0.2,0.3,0.2c0.3,0,0.7-0.2,1.2-0.7c0.5-0.4,1-1,1.4-1.8H64.3z"/>
		<path class="st0" d="M76,294.4c0,1-0.3,2-0.9,3c-0.6,1-1.4,1.9-2.6,2.7c-1.2,0.8-2.6,1.2-4.2,1.4l0.5-1.6c1.8-0.4,3.1-1,3.9-1.8
			c0.8-0.9,1.2-1.6,1.2-2.1c0-0.2,0-0.3-0.1-0.4c-0.1-0.1-0.3-0.1-0.5-0.1c-0.5,0-1-0.2-1.5-0.6c-0.5-0.4-0.7-1-0.7-1.6
			c0-0.7,0.2-1.2,0.6-1.6c0.4-0.4,1-0.6,1.6-0.6c0.8,0,1.5,0.3,2,1C75.8,292.7,76,293.5,76,294.4z"/>
		<path class="st0" d="M87.1,300.6l-0.5,1.6h-3.4l-2.6,8.4c-0.2,0.6-0.3,1-0.3,1.3c0,0.2,0.1,0.5,0.2,0.7c0.2,0.2,0.4,0.3,0.6,0.3
			c0.7,0,1.2-0.3,1.7-1c0.5-0.6,1-1.3,1.4-2.1h1.6c-0.6,1.4-1.4,2.5-2.2,3.3c-0.8,0.8-1.6,1.3-2.3,1.6c-0.7,0.3-1.3,0.4-1.9,0.4
			c-1,0-1.7-0.3-2.3-0.9s-0.8-1.3-0.8-2.3c0-0.6,0.2-1.5,0.5-2.6l2.2-7.1H76l0.5-1.6h3.2l1.6-5.2h4.1l-1.6,5.2H87.1z"/>
		<path class="st0" d="M128.3,310c-1.7,3.2-3.8,4.8-6.3,4.8c-0.9,0-1.5-0.2-2-0.7s-0.7-1-0.7-1.6c0-0.4,0.1-1.1,0.4-1.9l1.3-4.3
			c0.3-1,0.5-1.6,0.5-2c0-0.4-0.1-0.7-0.4-1s-0.6-0.4-1-0.4c-1,0-2,0.5-3.1,1.6s-2.1,2.4-3,4.1c-0.9,1.7-1.7,3.4-2.2,5.1l-0.2,0.8
			h-4.1l2.6-8.6c0.2-0.7,0.3-1.3,0.3-1.6s-0.1-0.7-0.3-0.9c-0.2-0.3-0.5-0.4-1-0.4c-0.8,0-1.6,0.3-2.4,1c-0.8,0.7-1.6,1.5-2.4,2.6
			c-0.7,1.1-1.4,2.3-2.1,3.5c-0.6,1.3-1.1,2.5-1.5,3.8l-0.2,0.6h-4.1l3-9.8c0.3-1.1,0.5-1.8,0.5-2c0-0.2-0.1-0.3-0.2-0.4
			c-0.1-0.1-0.2-0.2-0.4-0.2c-0.2,0-0.4,0.1-0.6,0.2c-0.3,0.2-0.5,0.4-0.8,0.8c-0.3,0.4-0.6,0.9-1,1.6h-1.5c0.5-1.2,1.2-2.3,2.1-3.3
			c0.9-1,2.1-1.5,3.5-1.5c0.5,0,0.9,0.1,1.4,0.3c0.4,0.2,0.8,0.4,1,0.8c0.3,0.4,0.4,0.8,0.4,1.4c0,0.6-0.2,1.6-0.6,2.9l-0.5,1.6
			c0.6-1.1,1.3-2.1,2.1-3c0.7-0.9,1.5-1.6,2.3-2.3c0.8-0.6,1.5-1.1,2.3-1.4c0.7-0.3,1.4-0.4,2.1-0.4c1,0,1.7,0.2,2.3,0.7
			c0.6,0.5,0.9,1.1,0.9,2c0,0.6-0.2,1.5-0.5,2.7l-0.5,1.5c0.7-1.2,1.5-2.3,2.3-3.3c0.9-1,1.9-1.9,3-2.6c1.1-0.7,2.3-1,3.5-1
			c0.7,0,1.3,0.1,1.8,0.4c0.5,0.3,0.8,0.7,1,1.1c0.2,0.4,0.3,0.8,0.3,1.2c0,0.3,0,0.6-0.1,0.9c-0.1,0.3-0.2,0.8-0.4,1.6l-1.6,5.3
			c-0.2,0.7-0.3,1.1-0.3,1.4c0,0.4,0.2,0.6,0.5,0.6c0.3,0,0.7-0.2,1.2-0.5s1-1,1.6-2H128.3z"/>
		<path class="st0" d="M138.9,310.5c-0.4,1-1.1,2-2.1,3c-0.9,1-2.1,1.6-3.6,1.6c-1,0-1.7-0.2-2.2-0.7c-0.5-0.5-0.7-1-0.7-1.7
			c0-0.7,0.2-1.6,0.6-2.8l2.2-6c0.2-0.5,0.3-0.9,0.3-1.1c0-0.1-0.1-0.2-0.2-0.3s-0.2-0.2-0.3-0.2c-0.4,0-0.8,0.3-1.3,0.9
			c-0.5,0.6-0.8,1.1-1,1.6h-1.5c0.7-1.5,1.5-2.7,2.6-3.5c1.1-0.8,2.2-1.2,3.2-1.2c0.8,0,1.4,0.2,1.9,0.6c0.5,0.4,0.7,0.9,0.7,1.5
			c0,0.6-0.1,1.3-0.4,2l-2.7,7.2c-0.2,0.5-0.3,0.9-0.3,1.2c0,0.1,0.1,0.3,0.2,0.4s0.2,0.2,0.4,0.2c0.3,0,0.7-0.2,1.1-0.5
			c0.4-0.4,0.8-1,1.4-2H138.9z M140.1,293.2c0,0.6-0.2,1.1-0.7,1.6c-0.4,0.4-1,0.7-1.5,0.7c-0.6,0-1.2-0.2-1.6-0.7
			c-0.4-0.4-0.6-1-0.6-1.6c0-0.6,0.2-1.1,0.6-1.5c0.4-0.4,1-0.7,1.6-0.7c0.4,0,0.8,0.1,1.1,0.3c0.3,0.2,0.6,0.5,0.8,0.8
			C140,292.4,140.1,292.8,140.1,293.2z"/>
		<path class="st0" d="M155.2,303c0,0.5-0.2,0.9-0.5,1.2c-0.3,0.4-0.7,0.5-1.3,0.5c-0.4,0-0.7-0.1-1-0.2c-0.2-0.2-0.4-0.4-0.5-0.7
			c-0.1-0.3-0.3-0.7-0.5-1.3c-0.1-0.4-0.3-0.7-0.5-0.9c-0.2-0.2-0.7-0.3-1.4-0.3c-0.6,0-1.1,0.2-1.6,0.5s-0.7,0.7-0.7,1.2
			c0,0.3,0.1,0.7,0.3,1s0.4,0.6,0.7,0.9c0.3,0.3,0.7,0.7,1.3,1.2c1.1,0.9,1.9,1.7,2.4,2.3c0.5,0.6,0.8,1.4,0.8,2.3
			c0,0.8-0.2,1.5-0.6,2.1c-0.4,0.7-1.2,1.2-2.2,1.6c-1,0.4-2.3,0.6-3.8,0.6c-2.2,0-3.8-0.4-4.7-1.2c-0.9-0.8-1.4-1.6-1.4-2.4
			c0-0.5,0.2-1,0.5-1.4c0.4-0.4,0.8-0.6,1.4-0.6c1.2,0,1.8,0.7,2,2.2c0.1,0.6,0.3,1.1,0.5,1.5s0.9,0.6,1.7,0.6
			c0.8,0,1.4-0.2,1.9-0.6c0.5-0.4,0.7-0.9,0.7-1.5c0-0.3-0.1-0.6-0.2-0.9s-0.5-0.7-1-1.1c-0.9-0.8-1.7-1.5-2.3-2.1
			c-0.6-0.6-1.1-1.2-1.4-1.7s-0.5-1.1-0.5-1.7c0-0.5,0.2-1.1,0.5-1.7c0.4-0.6,1-1.2,2-1.6c1-0.5,2.3-0.7,4-0.7c1,0,1.9,0.1,2.6,0.3
			c0.7,0.2,1.2,0.4,1.6,0.7c0.4,0.3,0.6,0.6,0.8,0.9C155.1,302.3,155.2,302.6,155.2,303z"/>
		<path class="st0" d="M171.2,303c0,0.5-0.2,0.9-0.5,1.2c-0.3,0.4-0.7,0.5-1.3,0.5c-0.4,0-0.7-0.1-1-0.2c-0.2-0.2-0.4-0.4-0.5-0.7
			c-0.1-0.3-0.3-0.7-0.5-1.3c-0.1-0.4-0.3-0.7-0.5-0.9c-0.2-0.2-0.7-0.3-1.4-0.3c-0.6,0-1.1,0.2-1.6,0.5s-0.7,0.7-0.7,1.2
			c0,0.3,0.1,0.7,0.3,1s0.4,0.6,0.7,0.9c0.3,0.3,0.7,0.7,1.3,1.2c1.1,0.9,1.9,1.7,2.4,2.3c0.5,0.6,0.8,1.4,0.8,2.3
			c0,0.8-0.2,1.5-0.6,2.1c-0.4,0.7-1.2,1.2-2.2,1.6c-1,0.4-2.3,0.6-3.8,0.6c-2.2,0-3.8-0.4-4.7-1.2c-0.9-0.8-1.4-1.6-1.4-2.4
			c0-0.5,0.2-1,0.5-1.4c0.4-0.4,0.8-0.6,1.4-0.6c1.2,0,1.8,0.7,2,2.2c0.1,0.6,0.3,1.1,0.5,1.5s0.9,0.6,1.7,0.6
			c0.8,0,1.4-0.2,1.9-0.6c0.5-0.4,0.7-0.9,0.7-1.5c0-0.3-0.1-0.6-0.2-0.9s-0.5-0.7-1-1.1c-0.9-0.8-1.7-1.5-2.3-2.1
			c-0.6-0.6-1.1-1.2-1.4-1.7s-0.5-1.1-0.5-1.7c0-0.5,0.2-1.1,0.5-1.7c0.4-0.6,1-1.2,2-1.6c1-0.5,2.3-0.7,4-0.7c1,0,1.9,0.1,2.6,0.3
			c0.7,0.2,1.2,0.4,1.6,0.7c0.4,0.3,0.6,0.6,0.8,0.9C171.1,302.3,171.2,302.6,171.2,303z"/>
		<path class="st0" d="M198.5,310.5c-0.3,0.7-0.7,1.3-1.1,1.8c-0.4,0.6-0.9,1-1.4,1.5c-0.5,0.4-1,0.7-1.5,1s-1,0.3-1.6,0.3
			c-1.2,0-2-0.4-2.3-1.1c-0.3-0.7-0.5-1.6-0.5-2.6c-0.9,1.1-1.8,2-2.7,2.6s-1.9,1-3,1c-0.7,0-1.2-0.2-1.7-0.6
			c-0.4-0.4-0.8-0.9-1-1.5c-0.2-0.6-0.3-1.3-0.3-2c0-1.5,0.4-3.2,1.2-4.9s1.9-3.1,3.2-4.3c1.4-1.2,2.8-1.7,4.4-1.7
			c0.7,0,1.3,0.1,1.7,0.4c0.4,0.3,0.7,0.6,0.8,1c0.2,0.4,0.3,0.7,0.4,1.2l0.6-2.1h3.8l-3.2,10.4c-0.2,0.8-0.3,1.2-0.3,1.4
			c0,0.1,0,0.3,0.1,0.4s0.2,0.2,0.3,0.2c0.7,0,1.5-0.8,2.4-2.4H198.5z M192.2,303.6c0-0.6-0.1-1-0.3-1.4c-0.2-0.4-0.6-0.6-1.2-0.6
			c-0.9,0-1.7,0.5-2.5,1.5c-0.8,1-1.5,2.2-1.9,3.6c-0.5,1.4-0.7,2.6-0.7,3.5c0,1.4,0.4,2.1,1.3,2.1c0.6,0,1.2-0.3,1.9-0.8
			c0.6-0.6,1.2-1.3,1.8-2.2c0.6-1,1-1.9,1.3-2.9C192,305.3,192.2,304.4,192.2,303.6z"/>
		<path class="st0" d="M235,303c0,1.2-0.3,2.6-0.8,3.9c-0.5,1.4-1.3,2.7-2.3,4c-1,1.3-2.1,2.3-3.3,3c-1.2,0.8-2.5,1.2-3.8,1.2
			c-1.8,0-3.2-0.9-3.9-2.8c-1,0.7-2.1,1.3-3.4,1.9s-2.5,0.9-3.7,0.9c-1,0-1.9-0.3-2.7-1c-0.8-0.6-1.1-1.5-1.1-2.7
			c0-0.7,0.1-1.4,0.4-2c0.3-0.6,0.7-1.2,1.2-1.7c0.5-0.5,1.1-1.1,1.9-1.8c0.3-0.3,0.6-0.6,1-1c0.4-0.4,0.6-0.6,0.7-0.8
			c0.1-0.1,0.2-0.3,0.4-0.6s0.3-0.5,0.4-0.7c-0.4,0.2-0.8,0.4-1.1,0.6c-0.3,0.1-0.7,0.2-1.1,0.2c-0.5,0-1.1-0.2-1.7-0.5
			c-0.5-0.3-0.9-0.4-1.1-0.4c-0.5,0-0.8,0.3-1,1h-1.4c0.8-2.5,2-3.8,3.5-3.8c0.7,0,1.5,0.4,2.5,1.2c0.4,0.3,0.8,0.4,1.1,0.4
			c0.3,0,0.5-0.1,0.6-0.3s0.3-0.4,0.4-0.8c0.1-0.4,0.4-0.6,0.7-0.6c0.5,0,0.7,0.2,0.7,0.7c0,0.5-0.2,1.3-0.7,2.4
			c-0.5,1-0.9,1.8-1.2,2.2c-0.5,0.8-0.8,1.4-1.1,1.9c-0.3,0.5-0.5,0.9-0.6,1.3s-0.3,0.7-0.4,1.1s-0.1,0.7-0.1,1.1
			c0,0.7,0.2,1.2,0.6,1.5c0.4,0.3,0.9,0.5,1.4,0.5c1.4,0,3-0.6,4.7-1.8c-0.1-0.8-0.2-1.4-0.2-1.8c0-0.8,0.1-1.7,0.4-2.7
			c0.2-1,0.6-2,1.1-3c0.5-1,1-1.8,1.7-2.4c0.7-0.6,1.4-0.9,2.2-0.9c0.7,0,1.2,0.3,1.6,0.9c0.4,0.6,0.6,1.2,0.6,1.9
			c0,2.2-1.3,4.5-3.9,6.9c0.6,1.8,1.6,2.7,3,2.7c1,0,1.9-0.4,2.7-1.1c0.8-0.7,1.5-1.6,1.9-2.7c0.5-1.1,0.7-2.1,0.7-3
			c0-0.5-0.2-1.4-0.5-2.7c-0.1-0.3-0.1-0.6-0.1-0.8c0-0.6,0.2-1.2,0.5-1.5c0.3-0.4,0.7-0.5,1.1-0.5c0.5,0,0.9,0.3,1.3,0.8
			C234.8,301.4,235,302.1,235,303z M226.5,302.9c0-0.4-0.1-0.7-0.3-1c-0.2-0.3-0.4-0.4-0.8-0.4c-0.6,0-1.1,0.4-1.5,1.3
			s-0.6,2-0.6,3.4c0,0.7,0.1,1.3,0.2,2c0.7-0.7,1.4-1.6,2.1-2.5C226.1,304.9,226.5,303.9,226.5,302.9z"/>
		<path class="st0" d="M253.3,306.1c0,1.1-0.2,2.3-0.7,3.3c-0.5,1.1-1.1,2.1-2,2.9s-1.9,1.5-3,2c-1.1,0.5-2.4,0.7-3.8,0.7
			c-1.3,0-2.5-0.3-3.5-0.8c-1-0.5-1.8-1.2-2.4-2.2c-0.6-0.9-0.8-2-0.8-3.2c0-1.5,0.4-3,1.3-4.3s2-2.5,3.4-3.3c1.5-0.8,3-1.2,4.7-1.2
			c1.4,0,2.6,0.3,3.6,0.8c1,0.6,1.8,1.3,2.3,2.2S253.3,305,253.3,306.1z M249.2,304.9c0-1.1-0.2-1.9-0.7-2.5c-0.5-0.6-1.1-0.9-2-0.9
			c-0.9,0-1.6,0.3-2.3,1c-0.7,0.6-1.2,1.4-1.7,2.4s-0.8,1.9-1,2.9c-0.2,1-0.3,1.8-0.3,2.5c0,1,0.2,1.8,0.7,2.4s1.1,0.9,1.9,0.9
			c0.9,0,1.7-0.3,2.4-0.9c0.7-0.6,1.3-1.4,1.7-2.4c0.4-1,0.8-1.9,1-2.9S249.2,305.5,249.2,304.9z"/>
		<path class="st0" d="M270.7,302.3c0,0.7-0.2,1.4-0.6,1.9c-0.4,0.6-0.9,0.8-1.5,0.8c-0.5,0-1-0.3-1.5-0.9c-0.3-0.4-0.5-0.5-0.8-0.5
			c-0.3,0-0.7,0.3-1.3,0.9c-0.5,0.6-1.1,1.3-1.6,2.3c-0.6,1-1.1,2.1-1.7,3.3s-1,2.5-1.4,3.8l-0.2,0.7h-4l2.7-9.6
			c0.3-0.9,0.4-1.6,0.4-1.9c0-0.1,0-0.3-0.1-0.4c-0.1-0.1-0.2-0.2-0.4-0.2c-0.4,0-0.9,0.3-1.4,0.9c-0.5,0.6-0.8,1.2-1,1.7h-1.6
			c0.7-1.3,1.3-2.3,2-3.1c0.7-0.7,1.4-1.2,2-1.5c0.6-0.3,1.2-0.4,1.8-0.4c0.9,0,1.5,0.3,1.8,0.9c0.3,0.6,0.4,1.1,0.4,1.7
			c0,1-0.3,2.6-1,4.7c0.6-1.1,1.2-2,1.6-2.7c0.4-0.7,0.9-1.4,1.5-2.1s1.2-1.3,1.8-1.8c0.6-0.5,1.3-0.7,1.9-0.7
			c0.9,0,1.5,0.2,1.7,0.7C270.6,301.3,270.7,301.8,270.7,302.3z"/>
		<path class="st0" d="M291.2,291l-6.1,19.7c-0.3,0.9-0.4,1.4-0.4,1.7c0,0.4,0.2,0.6,0.6,0.6c0.4,0,0.8-0.2,1.2-0.6
			c0.4-0.4,0.9-1,1.2-1.7h1.6c-0.2,0.5-0.5,1.1-1.1,1.8c-0.5,0.7-1.2,1.3-1.9,1.9s-1.7,0.8-2.6,0.8c-2,0-3-1.1-3-3.2
			c0-0.1,0-0.2,0-0.2c0-0.1,0-0.1,0-0.2c-0.4,0.6-1,1.2-1.6,1.7c-0.6,0.6-1.4,1-2.2,1.4c-0.8,0.4-1.6,0.5-2.4,0.5
			c-1.2,0-2.2-0.4-2.8-1.2c-0.6-0.8-1-1.8-1-3c0-1.3,0.3-2.6,0.8-3.9c0.5-1.3,1.2-2.5,2.1-3.5c0.9-1.1,1.9-1.9,3.1-2.5
			c1.2-0.6,2.4-0.9,3.6-0.9c1,0,1.7,0.2,2.2,0.5s0.9,0.8,1.2,1.3l2-6.7c0.2-0.6,0.4-1.1,0.4-1.3c0-0.3-0.1-0.5-0.3-0.7
			s-0.4-0.2-0.7-0.2s-0.7,0-1.3,0l0.4-1.6c1.2,0,2.1,0,2.7-0.1c0.7,0,1.2-0.1,1.6-0.1c0.4,0,0.9-0.1,1.5-0.2H291.2z M282.9,303.9
			c0-0.7-0.2-1.4-0.6-1.8s-0.9-0.7-1.5-0.7c-1,0-1.9,0.5-2.8,1.5c-0.9,1-1.6,2.2-2.2,3.6c-0.5,1.4-0.8,2.6-0.8,3.7
			c0,0.8,0.2,1.3,0.6,1.7s0.8,0.5,1.3,0.5c0.8,0,1.5-0.3,2.2-0.8c0.7-0.6,1.4-1.3,2-2.2c0.6-0.9,1-1.8,1.3-2.7
			C282.7,305.6,282.9,304.8,282.9,303.9z"/>
	</g>
</g>
</svg>
